<?xml version="1.0" encoding="utf-8"?>
<!-- Generator: Adobe Illustrator 23.0.4, SVG Export Plug-In . SVG Version: 6.00 Build 0)  -->
<svg version="1.1" id="Layer_1" xmlns="http://www.w3.org/2000/svg" xmlns:xlink="http://www.w3.org/1999/xlink" x="0px" y="0px"
	 viewBox="0 0 24 24" style="enable-background:new 0 0 24 24;" xml:space="preserve">
<style type="text/css">
	.st0{fill:#707070;}
</style>
<path class="st0" d="M3,8v16h18V8H3z M8,20c0,0.6-0.4,1-1,1s-1-0.4-1-1v-8c0-0.6,0.4-1,1-1s1,0.4,1,1V20z M13,20c0,0.6-0.4,1-1,1
	s-1-0.4-1-1v-8c0-0.6,0.4-1,1-1s1,0.4,1,1V20z M18,20c0,0.6-0.4,1-1,1s-1-0.4-1-1v-8c0-0.6,0.4-1,1-1s1,0.4,1,1V20z M22,4.6l-0.4,2
	L2,2.5l0.4-2l5.5,1.1c0.9,0.2,1.8-0.7,2-1.6l5.2,1.1C15,2,15.5,3.2,16.3,3.4L22,4.6z"/>
</svg>
