<?xml version="1.0" standalone="no"?>
<!DOCTYPE svg PUBLIC "-//W3C//DTD SVG 20010904//EN"
 "http://www.w3.org/TR/2001/REC-SVG-20010904/DTD/svg10.dtd">
<svg version="1.0" xmlns="http://www.w3.org/2000/svg"
 width="470.000000pt" height="470.000000pt" viewBox="0 0 470.000000 470.000000"
 preserveAspectRatio="xMidYMid meet">
<metadata>
Created by potrace 1.11, written by Peter Selinger 2001-2013
</metadata>
<g transform="translate(0.000000,470.000000) scale(0.100000,-0.100000)"
fill="#000000" stroke="none">
<path d="M707 4679 c-152 -52 -263 -173 -298 -324 -8 -37 -11 -569 -12 -2010
0 -1838 1 -1964 17 -2020 46 -154 164 -269 321 -311 77 -21 2050 -20 2118 1
119 36 219 121 275 231 41 82 46 109 51 273 1 19 5 22 24 18 84 -21 386 -30
490 -15 81 12 209 55 272 93 77 45 165 140 203 219 31 64 60 173 64 241 2 31
8 44 30 57 45 28 61 62 55 115 -7 65 -49 103 -113 103 -39 0 -51 -5 -80 -34
-29 -29 -34 -41 -34 -81 0 -40 5 -52 34 -81 20 -20 44 -34 58 -34 24 0 24 -1
17 -65 -33 -269 -176 -424 -454 -492 -77 -18 -344 -24 -445 -10 -30 4 -68 9
-83 12 -16 2 -31 6 -34 9 -4 3 -6 835 -6 1848 1 1021 -3 1870 -8 1903 -20 140
-123 275 -259 339 l-65 31 -1040 2 c-1018 2 -1041 2 -1098 -18z"/>
</g>
</svg>
